<svg xmlns="http://www.w3.org/2000/svg" version="1.1" xmlns:xlink="http://www.w3.org/1999/xlink" xmlns:svgjs="http://svgjs.dev/svgjs" viewBox="0 0 1920 1080" class="overflow-hidden rounded-md drop-shadow-lg transition duration-300" style="overflow: hidden; height: 85vh;"><rect width="1920" height="1080" fill="#194d2d"/><g clip-path="url(&quot;#SvgjsClipPath1791&quot;)"><g transform="matrix(0.6430718389913581,-0.9533932084382983,0.9533932084382983,0.6430718389913581,-178.77555883411924,1090.3847126052333)"><path d="M0,-1080C3.4916510842819,-989.6888525474325,16.511343400842083,-726.0299473635415,20.949906505691402,-538.133115284595C25.38846961054072,-350.2362832056484,24.91808870817679,-132.14923482460418,26.631378629095906,47.38099247367944C28.344668550015022,226.91121977196306,38.931903186042504,373.4007182492078,31.2296460312061,539.0482485051066C23.527388876369702,704.6957787610054,-8.334620528960182,860.4867292058441,-19.5821642999225,1041.2661740090723C-30.82970807088482,1222.0456188123005,-39.5193106445549,1437.2692796593215,-36.25561659456782,1623.724917324476C-32.99192254458074,1810.1805549896308,-6.042602765761303,2070.6208195540794,0,2160L 1920 2160 L 1920 -1080 Z" fill="url(&quot;#SvgjsLinearGradient1779&quot;)"/><path d="M160,-1080C152.95578821460467,-982.6574420811369,120.08870203661414,-667.8934471790515,117.734729287628,-495.94465248682127C115.38075653864186,-323.9958577945911,146.08982790091696,-223.1089186464497,145.87616350608317,-48.30723184661898C145.6624991112494,126.49445495321174,108.85498721537589,358.38524130087785,116.45274291862523,552.865468312163C124.05049862187458,747.3456953234481,188.31272906202884,935.941773112493,191.46269772557926,1118.574130221092C194.61266638912969,1301.206487329691,140.59633785419106,1475.0886326672726,135.35255489992787,1648.6596109637571C130.10877194566467,1822.2305892602417,155.8920924833213,2074.776601827293,160,2160L 1920 2160 L 1920 -1080 Z" fill="url(&quot;#SvgjsLinearGradient1780&quot;)"/><path d="M320,-1080C321.7936881861926,-996.1991269748188,323.4367276204131,-762.0613620915806,330.76212911715544,-577.1947618489129C338.0875306138978,-392.3281616062452,361.9179262669472,-164.27335772844185,363.9524089804542,29.199601456005993C365.98689169396124,222.6725606404538,353.21921285665087,409.71970325208827,342.9690253981976,583.6429932577739C332.7188379397443,757.5662832634596,312.77594788489483,905.5212044472014,302.4512842297343,1072.7393414901196C292.1266205745738,1239.9574785330378,278.09625750552357,1405.7417057636362,281.0210434672345,1586.951815515283C283.94582942894544,1768.1619252669298,313.5035072445391,2064.4919692525473,320,2160L 1920 2160 L 1920 -1080 Z" fill="url(&quot;#SvgjsLinearGradient1781&quot;)"/><path d="M480,-1080C475.9037059857367,-1009.4434649948347,462.6032241252484,-815.181982081023,455.4222359144202,-656.6607899690081C448.24124770359197,-498.1395978569932,426.99901823597395,-295.1383864473771,436.91407073503075,-128.87284732791082C446.82912323408755,37.39269179155548,505.9125808048476,191.03805217041085,514.912550908761,340.9324447477897C523.9125210126743,490.8268373251685,504.0655452196238,620.0023544354029,490.9138913585108,770.4935081363624C477.7622374973978,920.9846618373218,435.42286799375677,1090.2881697609816,436.00262774208295,1243.8793669535464C436.58238749040913,1397.4705641461112,487.0595544721482,1539.3539191173427,494.3924498484677,1692.0406912917515C501.72534522478725,1844.7274634661603,482.3987416414113,2082.0067818819584,480,2160L 1920 2160 L 1920 -1080 Z" fill="url(&quot;#SvgjsLinearGradient1782&quot;)"/><path d="M640,-1080C636.7151219834009,-1016.8136983089335,612.3271489463998,-828.1686669550747,620.2907319004053,-700.882189853601C628.2543148544107,-573.5957127521272,684.3517596681806,-461.3010235041562,687.7814977240325,-316.28113739115753C691.2112357798844,-171.26125127815888,647.6538074641985,26.310025031635263,640.8691602355167,169.23712682439105C634.0845130068349,312.1642286171468,649.5293478516484,408.9537341999593,647.073614351942,541.2814733653771C644.6178808522355,673.6092125307949,625.1472164764298,832.3824245422097,626.1347592372781,963.2035618168982C627.1223019981264,1094.0246990915866,657.8818132592772,1191.0969506827478,652.9988709170319,1326.2082970135077C648.1159285747866,1461.3196433442677,599.0035836699782,1634.9063559703754,596.8371051838062,1773.8716398014576C594.6706266976342,1912.8369236325398,632.806184197301,2095.645273300243,640,2160L 1920 2160 L 1920 -1080 Z" fill="url(&quot;#SvgjsLinearGradient1783&quot;)"/><path d="M800,-1080C797.9865983146335,-939.9967349827044,788.370409953488,-503.33991540393254,787.9195898878007,-239.9804098962263C787.4687698221135,23.379095611479983,791.6320877940059,229.92177806285014,797.2950796058765,500.1570330462376C802.9580714177471,770.392288029625,821.4467206933368,1104.7906255118046,821.8975407590241,1381.4311200040984C822.3483608247113,1658.0716144963922,803.649590126504,2030.2385200006831,800,2160L 1920 2160 L 1920 -1080 Z" fill="url(&quot;#SvgjsLinearGradient1784&quot;)"/><path d="M960,-1080C959.9930388925741,-967.8463267914981,958.2837951374595,-626.8065821957705,959.9582333554442,-407.07796074898846C961.632671573429,-187.3493393022064,966.6228625751572,31.58143294209978,970.0466293079083,238.37172868069223C973.4703960406595,445.16202441928465,990.1525360701927,618.0722984178886,980.5008337519508,833.6638136825661C970.849131433709,1049.2553289472435,915.5532210237825,1310.8647892158515,912.1364153984573,1531.920820268757C908.7196097731321,1752.9768513216627,952.0227358997429,2055.3201367114593,960,2160L 1920 2160 L 1920 -1080 Z" fill="url(&quot;#SvgjsLinearGradient1785&quot;)"/><path d="M1120,-1080C1112.2627908241316,-1003.1663919556607,1066.4034657979273,-775.1889272166159,1073.5767449447887,-618.9983517339646C1080.7500240916502,-462.80777625131327,1157.5037781336323,-300.27290311748175,1163.0396748811686,-142.85654710409236C1168.575571628705,14.559808909297033,1108.0538175249128,171.92676904195875,1106.7921254300063,325.49978434637177C1105.5304333350998,479.07279965078476,1149.9486027477249,625.9179881458219,1155.4695223117292,778.5815447223857C1160.9904418757335,931.2451012989495,1149.0952794361956,1081.4689105170423,1139.917642814032,1241.4811238057546C1130.7400061918684,1401.4933370944668,1103.72330971442,1585.5683450889521,1100.4037025787482,1738.6548244546598C1097.0840954430762,1891.7413038203674,1116.7339504297913,2089.7758040757767,1120,2160L 1920 2160 L 1920 -1080 Z" fill="url(&quot;#SvgjsLinearGradient1786&quot;)"/><path d="M1280,-1080C1282.2370232802637,-1011.0518141134063,1287.3191725910292,-800.0937521748094,1293.4221396815817,-666.3108846804377C1299.5251067721342,-532.5280171860659,1326.811176253602,-408.0482461126253,1316.6178025433153,-277.3027950337691C1306.4244288330285,-146.5573439549129,1236.0707195907132,-17.195107446397287,1232.2618974198613,118.1618217926995C1228.4530752490093,253.51875103179628,1278.408926040034,396.1332195944174,1293.764869518204,534.8387804008116C1309.120812996374,673.5443412072059,1333.3817456329668,821.5436203505391,1324.3975582888813,950.3951866310647C1315.4133709447958,1079.2467529115904,1253.6021030423904,1181.3049519912943,1239.8597454536905,1307.9481780839656C1226.1173878649906,1434.5914041766368,1235.2533703322965,1568.2459062010869,1241.9434127566815,1710.2545431870926C1248.6334551810664,1852.2631801730984,1273.6572354594468,2085.0424238645155,1280,2160L 1920 2160 L 1920 -1080 Z" fill="url(&quot;#SvgjsLinearGradient1787&quot;)"/><path d="M1440,-1080C1436.7509302544713,-1014.2978831032522,1413.454120040313,-821.2427318648444,1420.5055815268277,-685.7872986195133C1427.5570430133423,-550.3318653741823,1482.8464554007273,-403.7905970610178,1482.3087689190882,-267.2674005280139C1481.771082437449,-130.74420399501003,1431.925701850308,-1.2077918607811,1417.279462636992,133.35188057851005C1402.633223423676,267.9115530178012,1384.1731890594372,405.9940034248416,1394.4313336391924,540.090634107733C1404.6894782189477,674.1872647906243,1470.502157655973,796.5370040476643,1478.8283301155232,937.9316646758584C1487.1545025750734,1079.3263253040525,1454.4512005832692,1258.719525037202,1444.3883683964932,1388.4585978768978C1434.3255362097173,1518.1976707165936,1419.1827317276163,1587.7758680268496,1418.4513369948675,1716.3661017140332C1417.7199422621186,1844.9563354012168,1436.4085561658112,2086.061016952339,1440,2160L 1920 2160 L 1920 -1080 Z" fill="url(&quot;#SvgjsLinearGradient1788&quot;)"/><path d="M1600,-1080C1592.0510439872633,-997.8280679068678,1558.4678103552633,-773.9403226126971,1552.3062639235798,-586.9684074412069C1546.1447174918962,-399.99649226971667,1547.7534334698269,-147.04316797157588,1563.0307214098987,41.831491028941144C1578.3080093499705,230.70615002945817,1645.2530664044975,380.5855141094861,1643.969991564011,546.2795465618955C1642.6869167235245,711.9735790143048,1561.4628299539022,853.1555808348974,1555.3322723669794,1035.9956857433976C1549.2017147800566,1218.835790651898,1599.7420247703042,1455.9861236367967,1607.1866460424742,1643.320176012897C1614.6312673146442,1830.6542283889974,1601.1977743404123,2073.8866960021496,1600,2160L 1920 2160 L 1920 -1080 Z" fill="url(&quot;#SvgjsLinearGradient1789&quot;)"/><path d="M1760,-1080C1768.2127866769542,-1006.8074124512586,1801.20433773367,-790.9800546133755,1809.2767200617247,-640.8444747075516C1817.3491023897795,-490.70889480172775,1818.6063730313556,-336.0485583622999,1808.4342939683293,-179.18652056505658C1798.262214905303,-22.324482767813294,1758.0159297448413,141.63084193463246,1748.2442456835672,300.32775207590817C1738.4725616222931,459.02466221718385,1743.9460772283167,614.9050523081706,1749.8041896006848,772.9949402825977C1755.662301973053,931.0848282570247,1776.7313252302638,1091.5502284160095,1783.3929199177762,1248.86707992247C1790.0545146052887,1406.1839314289307,1793.6725777120562,1565.0405626417726,1789.77375772576,1716.8960493213608C1785.874937739464,1868.751536000949,1764.9622929542934,2086.14934155356,1760,2160L 1920 2160 L 1920 -1080 Z" fill="url(&quot;#SvgjsLinearGradient1790&quot;)"/></g></g><defs><linearGradient x1="0.1" y1="0" x2="0" y2="1" id="SvgjsLinearGradient1779"><stop stop-color="#194d2d" offset="0"/><stop stop-color="#194d24" offset="0"/></linearGradient><linearGradient x1="0.1" y1="0" x2="0" y2="1" id="SvgjsLinearGradient1780"><stop stop-color="#21663b" offset="0"/><stop stop-color="#21662f" offset="0.08333333333333333"/></linearGradient><linearGradient x1="0.1" y1="0" x2="0" y2="1" id="SvgjsLinearGradient1781"><stop stop-color="#297f4a" offset="0"/><stop stop-color="#297f3c" offset="0.16666666666666666"/></linearGradient><linearGradient x1="0.1" y1="0" x2="0" y2="1" id="SvgjsLinearGradient1782"><stop stop-color="#319758" offset="0"/><stop stop-color="#319747" offset="0.25"/></linearGradient><linearGradient x1="0.1" y1="0" x2="0" y2="1" id="SvgjsLinearGradient1783"><stop stop-color="#39b067" offset="0"/><stop stop-color="#39b053" offset="0.3333333333333333"/></linearGradient><linearGradient x1="0.1" y1="0" x2="0" y2="1" id="SvgjsLinearGradient1784"><stop stop-color="#47c377" offset="0"/><stop stop-color="#47c362" offset="0.4166666666666667"/></linearGradient><linearGradient x1="0.1" y1="0" x2="0" y2="1" id="SvgjsLinearGradient1785"><stop stop-color="#60cb89" offset="0"/><stop stop-color="#60cb77" offset="0.5"/></linearGradient><linearGradient x1="0.1" y1="0" x2="0" y2="1" id="SvgjsLinearGradient1786"><stop stop-color="#79d39c" offset="0"/><stop stop-color="#79d38d" offset="0.5833333333333334"/></linearGradient><linearGradient x1="0.1" y1="0" x2="0" y2="1" id="SvgjsLinearGradient1787"><stop stop-color="#91dbae" offset="0"/><stop stop-color="#91dba2" offset="0.6666666666666666"/></linearGradient><linearGradient x1="0.1" y1="0" x2="0" y2="1" id="SvgjsLinearGradient1788"><stop stop-color="#aae3c0" offset="0"/><stop stop-color="#aae3b6" offset="0.75"/></linearGradient><linearGradient x1="0.1" y1="0" x2="0" y2="1" id="SvgjsLinearGradient1789"><stop stop-color="#c3ecd3" offset="0"/><stop stop-color="#c3eccc" offset="0.8333333333333334"/></linearGradient><linearGradient x1="0.1" y1="0" x2="0" y2="1" id="SvgjsLinearGradient1790"><stop stop-color="#dcf4e5" offset="0"/><stop stop-color="#dcf4e1" offset="0.9166666666666666"/></linearGradient><clipPath id="SvgjsClipPath1791"><rect width="1920" height="1080"/></clipPath></defs></svg>