<svg xmlns="http://www.w3.org/2000/svg" version="1.1" xmlns:xlink="http://www.w3.org/1999/xlink" xmlns:svgjs="http://svgjs.dev/svgjs" viewBox="0 0 2560 1440" class="overflow-hidden rounded-md drop-shadow-lg transition duration-300" style="overflow: hidden; height: 85vh;"><rect width="2560" height="1440" fill="#50f5dd"/><g clip-path="url(&quot;#SvgjsClipPath1132&quot;)"><g transform="matrix(0.27821017993961805,1.1158400852173957,-1.1158400852173957,0.27821017993961805,1714.452518666758,-888.7317136028339)"><path d="M0,-1440C-3.355363112143133,-1318.2735334680192,-30.53218337545328,-948.4568240289004,-20.1321786728588,-709.6412008081152C-9.732173970264318,-470.8255775873299,61.23970317689304,-236.6512734631172,62.40002821556689,-7.10626067528878C63.560353254240745,222.43875211253965,1.3416276732831705,417.3213487455016,-13.170228440815663,667.6288759188553C-27.682084554914496,917.936403092209,-21.091423741843737,1244.1155776693965,-24.67110846902611,1494.7389023648338C-28.25079319620848,1745.3622270602712,-38.76018821541425,1940.491974485618,-34.6483368039099,2171.368824091479C-30.53648539240555,2402.24567369734,-5.77472280065165,2761.8948040152463,0,2880L 2560 2880 L 2560 -1440 Z" fill="url(&quot;#SvgjsLinearGradient1128&quot;)"/><path d="M640,-1440C643.3066848624802,-1302.5300934907505,667.745454543424,-899.8245181544114,659.840109174881,-615.1805609445025C651.9347638063381,-330.53660373459365,599.4200377093822,-27.397189106715928,592.5679277887422,267.8637432594534C585.7158178681021,563.1246756256227,616.4175915451028,856.7889866481764,618.7274496510408,1156.3850332525133C621.0373077569789,1455.98107985685,602.8816513662107,1778.170861760893,606.4270764243705,2065.4400228854743C609.9725014825303,2352.709184010055,634.4045127373951,2744.240003814246,640,2880L 2560 2880 L 2560 -1440 Z" fill="url(&quot;#SvgjsLinearGradient1129&quot;)"/><path d="M1280,-1440C1290.5683366392966,-1263.56085021308,1352.5227499296575,-746.8644195236083,1343.4100198357792,-381.36510127847936C1334.2972897419008,-15.865783033350453,1233.6947468733251,382.49787070565776,1225.3236194367307,752.9959094707733C1216.9524920001363,1123.4939482358889,1284.0705251223349,1487.1224495573429,1293.183255216213,1841.623131312214C1302.295985310091,2196.123813067085,1282.1972092027022,2706.937188552036,1280,2880L 2560 2880 L 2560 -1440 Z" fill="url(&quot;#SvgjsLinearGradient1130&quot;)"/><path d="M1920,-1440C1922.5784150648326,-1298.6996930215016,1930.5424013039174,-875.8065608576142,1935.4704903889951,-592.1981581290095C1940.398579474073,-308.5897554004048,1960.7796453294266,-24.61597561741445,1949.568534510466,261.650416371628C1938.3574236915053,547.9168083606705,1867.8152618112522,828.2840397927957,1868.2038254752317,1125.4001938052454C1868.5923891392113,1422.516347817695,1943.267220740215,1751.9140394138662,1951.899916494343,2044.3473404463255C1960.532612248471,2336.7806414787847,1925.316652749057,2740.724556741054,1920,2880L 2560 2880 L 2560 -1440 Z" fill="url(&quot;#SvgjsLinearGradient1131&quot;)"/></g></g><defs><linearGradient x1="0.1" y1="0" x2="0" y2="1" id="SvgjsLinearGradient1128"><stop stop-color="#50f5dd" offset="0"/><stop stop-color="#50f5c1" offset="0"/></linearGradient><linearGradient x1="0.1" y1="0" x2="0" y2="1" id="SvgjsLinearGradient1129"><stop stop-color="#6df7e3" offset="0"/><stop stop-color="#6df7cc" offset="0.25"/></linearGradient><linearGradient x1="0.1" y1="0" x2="0" y2="1" id="SvgjsLinearGradient1130"><stop stop-color="#8bf8e8" offset="0"/><stop stop-color="#8bf8d6" offset="0.5"/></linearGradient><linearGradient x1="0.1" y1="0" x2="0" y2="1" id="SvgjsLinearGradient1131"><stop stop-color="#a8faee" offset="0"/><stop stop-color="#a8fae0" offset="0.75"/></linearGradient><clipPath id="SvgjsClipPath1132"><rect width="2560" height="1440"/></clipPath></defs></svg>