<svg xmlns="http://www.w3.org/2000/svg" version="1.1" xmlns:xlink="http://www.w3.org/1999/xlink" xmlns:svgjs="http://svgjs.dev/svgjs" viewBox="0 0 3840 2160" class="overflow-hidden rounded-md drop-shadow-lg transition duration-300" style="overflow: hidden; height: 85vh;"><rect width="3840" height="2160" fill="#194d2d"/><g clip-path="url(&quot;#SvgjsClipPath1778&quot;)"><g transform="matrix(0.6430718389913581,-0.9533932084382983,0.9533932084382983,0.6430718389913581,-348.7947362754039,2204.158654367483)"><path d="M0,-2160C7.480184213243838,-1937.2468407367562,49.02023362978433,-1252.9414829943453,44.88110527946303,-823.4810444205369C40.74197692914173,-394.02060584672853,-24.904251100316856,-3.197598218749249,-24.834770101927784,416.76263144285014C-24.765289103538713,836.7228611044495,37.04653307272902,1269.135682730141,45.29799126979745,1696.2803335490594C53.54944946686588,2123.4249843679777,32.2236442921157,2542.343925281203,24.673979080482795,2979.6305363563597C17.124313868849885,3416.9171474315162,4.112329846747133,4096.605089392727,0,4320L 3840 4320 L 3840 -2160 Z" fill="url(&quot;#SvgjsLinearGradient1766&quot;)"/><path d="M320,-2160C321.92546788696785,-1951.7978238595258,337.80821636375526,-1340.4570796416033,331.55280732180705,-910.7869431571543C325.29739827985884,-481.1168066727052,277.08668282981165,-24.78084462145938,282.46754574831056,418.02081890669456C287.84840866680946,860.8224824348486,349.7993443288902,1305.8944124471116,363.83798483280054,1746.0230380117691C377.8766253367109,2186.151663576427,374.0057195772395,2629.796411963269,366.69938877177276,3058.7925722946406C359.393057966306,3487.7887326260125,327.78323146196215,4109.798762049107,320,4320L 3840 4320 L 3840 -2160 Z" fill="url(&quot;#SvgjsLinearGradient1767&quot;)"/><path d="M640,-2160C635.9377789374846,-2013.7520417560781,609.5412925236519,-1590.0673318235204,615.6266736249078,-1282.5122505364686C621.7120547261636,-974.9571692494169,667.149457295295,-633.3172000674128,676.5122866075353,-314.6695122776892C685.8751159197757,3.978175512034511,677.574797310784,317.1604448096637,671.8036494983503,629.3738762018737C666.0325016859166,941.5873075940838,650.8360704253467,1259.8770769059277,641.8853997329331,1558.6110760755707C632.9347290405195,1857.3450752452138,611.2828987363115,2121.153954928156,618.0996253438689,2421.777871219733C624.9163519514262,2722.4017875113095,679.1356969355888,3045.984219028319,682.7857593782774,3362.35457382503C686.4358218209659,3678.724928621741,647.1309598963795,4160.392428970838,640,4320L 3840 4320 L 3840 -2160 Z" fill="url(&quot;#SvgjsLinearGradient1768&quot;)"/><path d="M960,-2160C958.7801293956159,-1944.8016281404546,954.4775018084064,-1304.6679490358508,952.680776373695,-868.8097688427275C950.8840509389837,-432.95158864960416,946.1550423104381,15.867053711573362,949.2196473917318,455.1490811587398C952.2842524730254,894.4311086059063,961.310093278819,1340.8315421905927,971.0684068614564,1766.882395840271C980.8267204440939,2192.9332494899495,1009.6142633644658,2585.9346023635217,1007.7695288875565,3011.45420305681C1005.9247944106471,3436.9738037500983,967.961588147926,4101.909033842801,960,4320L 3840 4320 L 3840 -2160 Z" fill="url(&quot;#SvgjsLinearGradient1769&quot;)"/><path d="M1280,-2160C1283.8186887911304,-2030.8612813999648,1311.157291702682,-1652.4898294256623,1302.912132746782,-1385.1676883997884C1294.666973790882,-1117.8455473739145,1232.9643435151486,-825.4545063020031,1230.5290462645992,-556.0671538447563C1228.0937490140498,-286.67980138750943,1276.292666578116,-34.82390056458121,1288.3003492434852,231.15642634369254C1300.3080319088544,497.1367532519663,1302.9146534322044,760.8146029735697,1302.5751422568142,1039.814807604886C1302.235631081424,1318.8150122362024,1284.7358283017084,1634.2755976152457,1286.2632821911443,1905.1576541315903C1287.7907360805802,2176.039710647935,1318.3031502455046,2398.802360096202,1311.7398655934303,2665.107146702954C1305.176580941356,2931.4119333097065,1252.1735518776027,3227.170898222597,1246.8835742786976,3502.9863737721043C1241.5935966797924,3778.801849321612,1274.4805957131161,4183.83106229535,1280,4320L 3840 4320 L 3840 -2160 Z" fill="url(&quot;#SvgjsLinearGradient1770&quot;)"/><path d="M1600,-2160C1604.411773538876,-2030.3581434634161,1628.4812239976204,-1646.0698753077409,1626.4706412332564,-1382.1488607804974C1624.4600584688924,-1118.227846253254,1597.9729459191817,-859.58806894789,1587.9365034138166,-576.4739128365388C1577.9000609084515,-293.35975672518776,1569.1647591801518,36.06607583734069,1566.251986201066,316.53607588760906C1563.3392132219803,597.0060759378774,1564.8258198369886,849.0890648985774,1570.4598655393024,1106.3460874650714C1576.0939112416163,1363.6031100315654,1589.2285392633767,1588.0852039333656,1600.0562604149497,1860.0782112865734C1610.8839815665228,2132.071218639781,1638.9386535530855,2456.561681040674,1635.4261924487414,2738.3041315843175C1631.9137313443973,3020.046582127961,1584.8858591970086,3286.9169364791524,1578.981493788885,3550.532914548433C1573.0771283807615,3814.1488926177135,1596.4969156314808,4191.755485758073,1600,4320L 3840 4320 L 3840 -2160 Z" fill="url(&quot;#SvgjsLinearGradient1771&quot;)"/><path d="M1920,-2160C1912.2456144617795,-1894.6909051068344,1871.9048057903162,-1101.9033432814358,1873.4736867706767,-568.1454306410064C1875.0425677510373,-34.38751800057696,1924.9219388191345,505.4259187542201,1929.4132858821633,1042.5474758425767C1933.9046329451921,1579.669032930933,1901.9906501292107,2108.341824529562,1900.4217691488502,2654.5839118891327C1898.8528881684897,3200.8259992487033,1916.7369615248083,4042.4306519815223,1920,4320L 3840 4320 L 3840 -2160 Z" fill="url(&quot;#SvgjsLinearGradient1772&quot;)"/><path d="M2240,-2160C2244.813243166903,-1951.8107524035947,2276.121141576399,-1344.744330707499,2268.8794590014154,-910.8645144215685C2261.6377764264316,-476.98469813563804,2204.0006853214672,7.7886595917140085,2196.5499045500965,443.278897715583C2189.0991237787257,878.769135839452,2211.589792246634,1274.971013505234,2224.1747743731894,1702.0769143216457C2236.759756499745,2129.182815138058,2269.422259704961,2569.593788334328,2272.0597973094295,3005.9143026140537C2274.697334913898,3442.234816893779,2245.3432995515714,4100.985717102342,2240,4320L 3840 4320 L 3840 -2160 Z" fill="url(&quot;#SvgjsLinearGradient1773&quot;)"/><path d="M2560,-2160C2552.8546042875605,-2012.3223409997854,2525.102466819902,-1586.9050739268073,2517.1276257253617,-1273.9340459987118C2509.1527846308213,-960.9630180706163,2502.803209000678,-600.31657473677,2512.150953432757,-282.17383243142683C2521.498697864836,35.96890987391629,2565.9401114965326,334.56546738064577,2573.214092317836,634.922407833347C2580.488073139139,935.2793482860484,2560.7270968984335,1214.7242250638678,2555.7948383605767,1519.9678102847809C2550.86257982272,1825.2113955056939,2536.693186996989,2146.2837468626435,2543.620541090695,2466.3839191588245C2550.547895184401,2786.4840914550055,2594.629053104596,3131.632830588338,2597.3589629228136,3440.5688440618674C2600.088872741031,3749.5048575353967,2566.226493820469,4173.428140676978,2560,4320L 3840 4320 L 3840 -2160 Z" fill="url(&quot;#SvgjsLinearGradient1774&quot;)"/><path d="M2880,-2160C2885.6209625528127,-1945.362060417903,2921.0655216821983,-1310.7125546754737,2913.7257753168747,-872.1723625074183C2906.386028951551,-433.63217033936274,2844.34699796253,44.78314500542638,2835.9615218080585,471.2411530083332C2827.576045653587,897.69916101124,2852.677066348906,1258.8149675033958,2863.412918390045,1686.5756855100228C2874.148770431184,2114.3364035166496,2897.6121204532333,2598.901408633099,2900.3766340548923,3037.8054610480954C2903.1411476565513,3476.7095134630918,2883.3961056758153,4106.300910174683,2880,4320L 3840 4320 L 3840 -2160 Z" fill="url(&quot;#SvgjsLinearGradient1775&quot;)"/><path d="M3200,-2160C3207.1792703295564,-1945.5275838949124,3242.941805539274,-1298.636009127996,3243.075621977339,-873.1655033694739C3243.209438415404,-447.6949976109518,3210.423428654817,-46.52514277046146,3200.80289862839,392.8230345511325C3191.1823686019625,832.1712118727264,3177.5417350095945,1321.1975435817296,3185.3524418187735,1762.9235605600895C3193.1631486279525,2204.649577538449,3245.2258797865925,2616.999729847973,3247.6671394834634,3043.1791364212913C3250.1083991803343,3469.3585429946097,3207.944523247244,4107.196522736882,3200,4320L 3840 4320 L 3840 -2160 Z" fill="url(&quot;#SvgjsLinearGradient1776&quot;)"/><path d="M3520,-2160C3519.7388135663055,-1937.5154124879402,3526.036897114709,-1254.9678131613061,3518.4328813978323,-825.092474927642C3510.8288656809555,-395.2171366939779,3473.8313293523875,-9.952434534031795,3474.375905698738,419.2520294019847C3474.920482045088,848.4564933380012,3514.0044000043595,1312.9330109496407,3521.7003394759354,1750.1343086884572C3529.3962789475113,2187.335606427274,3520.8349324408487,2614.1488672829596,3520.551542528193,3042.4598158348836C3520.268152615537,3470.7707643868075,3520.0919237546987,4107.07663597248,3520,4320L 3840 4320 L 3840 -2160 Z" fill="url(&quot;#SvgjsLinearGradient1777&quot;)"/></g></g><defs><linearGradient x1="0.1" y1="0" x2="0" y2="1" id="SvgjsLinearGradient1766"><stop stop-color="#194d2d" offset="0"/><stop stop-color="#194d24" offset="0"/></linearGradient><linearGradient x1="0.1" y1="0" x2="0" y2="1" id="SvgjsLinearGradient1767"><stop stop-color="#21663b" offset="0"/><stop stop-color="#21662f" offset="0.08333333333333333"/></linearGradient><linearGradient x1="0.1" y1="0" x2="0" y2="1" id="SvgjsLinearGradient1768"><stop stop-color="#297f4a" offset="0"/><stop stop-color="#297f3c" offset="0.16666666666666666"/></linearGradient><linearGradient x1="0.1" y1="0" x2="0" y2="1" id="SvgjsLinearGradient1769"><stop stop-color="#319758" offset="0"/><stop stop-color="#319747" offset="0.25"/></linearGradient><linearGradient x1="0.1" y1="0" x2="0" y2="1" id="SvgjsLinearGradient1770"><stop stop-color="#39b067" offset="0"/><stop stop-color="#39b053" offset="0.3333333333333333"/></linearGradient><linearGradient x1="0.1" y1="0" x2="0" y2="1" id="SvgjsLinearGradient1771"><stop stop-color="#47c377" offset="0"/><stop stop-color="#47c362" offset="0.4166666666666667"/></linearGradient><linearGradient x1="0.1" y1="0" x2="0" y2="1" id="SvgjsLinearGradient1772"><stop stop-color="#60cb89" offset="0"/><stop stop-color="#60cb77" offset="0.5"/></linearGradient><linearGradient x1="0.1" y1="0" x2="0" y2="1" id="SvgjsLinearGradient1773"><stop stop-color="#79d39c" offset="0"/><stop stop-color="#79d38d" offset="0.5833333333333334"/></linearGradient><linearGradient x1="0.1" y1="0" x2="0" y2="1" id="SvgjsLinearGradient1774"><stop stop-color="#91dbae" offset="0"/><stop stop-color="#91dba2" offset="0.6666666666666666"/></linearGradient><linearGradient x1="0.1" y1="0" x2="0" y2="1" id="SvgjsLinearGradient1775"><stop stop-color="#aae3c0" offset="0"/><stop stop-color="#aae3b6" offset="0.75"/></linearGradient><linearGradient x1="0.1" y1="0" x2="0" y2="1" id="SvgjsLinearGradient1776"><stop stop-color="#c3ecd3" offset="0"/><stop stop-color="#c3eccc" offset="0.8333333333333334"/></linearGradient><linearGradient x1="0.1" y1="0" x2="0" y2="1" id="SvgjsLinearGradient1777"><stop stop-color="#dcf4e5" offset="0"/><stop stop-color="#dcf4e1" offset="0.9166666666666666"/></linearGradient><clipPath id="SvgjsClipPath1778"><rect width="3840" height="2160"/></clipPath></defs></svg>