<?xml version="1.0" standalone="no"?><!DOCTYPE svg PUBLIC "-//W3C//DTD SVG 1.1//EN" "http://www.w3.org/Graphics/SVG/1.1/DTD/svg11.dtd"><svg t="1637329690964" class="icon" viewBox="0 0 1024 1024" version="1.1" xmlns="http://www.w3.org/2000/svg" p-id="906" xmlns:xlink="http://www.w3.org/1999/xlink" width="200" height="200"><defs><style type="text/css"></style></defs><path d="M738.048 189.184H277.76a126.72 126.72 0 0 0-126.464 126.464v315.136a126.72 126.72 0 0 0 126.464 126.464h71.424l120.576 86.528c10.496 7.68 23.04 11.264 35.328 11.264 12.288 0 24.832-3.84 35.328-11.264l120.576-86.528h77.056a126.72 126.72 0 0 0 126.464-126.464V315.648a126.72 126.72 0 0 0-126.464-126.464z m66.304 441.6a66.304 66.304 0 0 1-66.304 66.304h-86.528c-1.024 0-2.048 0.512-3.072 0.512-2.048 0.256-4.096 0.512-5.888 1.28-2.048 0.512-3.84 1.536-5.632 2.56-1.024 0.512-2.048 0.768-2.816 1.28l-129.28 92.16-128.512-92.16c-1.024-0.768-2.048-0.768-2.816-1.28-1.792-1.024-3.584-1.792-5.632-2.56-2.048-0.512-3.84-1.024-5.888-1.28-1.024 0-2.048-0.512-3.072-0.512h-80.896a66.304 66.304 0 0 1-66.304-66.304V315.648a66.304 66.304 0 0 1 66.304-66.304h460.288a66.304 66.304 0 0 1 66.304 66.304v315.136z" fill="#1B1F28" p-id="907"></path><path d="M338.688 489.216m-44.288 0a44.288 44.288 0 1 0 88.576 0 44.288 44.288 0 1 0-88.576 0Z" fill="#005CFF" p-id="908"></path><path d="M507.904 489.216m-44.288 0a44.288 44.288 0 1 0 88.576 0 44.288 44.288 0 1 0-88.576 0Z" fill="#005CFF" p-id="909"></path><path d="M677.376 489.216m-44.288 0a44.288 44.288 0 1 0 88.576 0 44.288 44.288 0 1 0-88.576 0Z" fill="#005CFF" p-id="910"></path></svg>