<?xml version="1.0" standalone="no"?><!DOCTYPE svg PUBLIC "-//W3C//DTD SVG 1.1//EN" "http://www.w3.org/Graphics/SVG/1.1/DTD/svg11.dtd"><svg t="1637329625909" class="icon" viewBox="0 0 1024 1024" version="1.1" xmlns="http://www.w3.org/2000/svg" p-id="999" xmlns:xlink="http://www.w3.org/1999/xlink" width="200" height="200"><defs><style type="text/css"></style></defs><path d="M797.529416 960.30622l-280.487808-219.1311L236.563598 960.30622V53.894737h560.965818z" fill="#F07D7D" p-id="1000"></path><path d="M812.610144 941.002105l-280.487809-219.1311-15.080727-11.77845-15.080728 11.77845L221.482871 941.002105 261.061206 960.30622V53.894737l-24.497608 24.497607h560.965818l-24.497607-24.497607v906.411483l39.578335-19.304115zM797.529416 29.397129H212.06599v981.134086l39.578335-30.92088 280.47801-219.131101h-30.161455l280.487809 219.131101 39.578335 30.92088V29.397129h-24.497608z" fill="#6E6E96" p-id="1001"></path><path d="M241.46312 872.114833v93.090909l280.478009-219.131101L802.428938 965.205742v-93.090909l-280.487809-219.131101z" fill="#6E6E96" opacity=".15" p-id="1002"></path><path d="M261.061206 78.392344h511.970603v58.794259H261.061206z" fill="#FFFFFF" opacity=".2" p-id="1003"></path></svg>